<svg width="160" height="17" viewBox="0 0 160 17" fill="none" xmlns="http://www.w3.org/2000/svg">
<path d="M151.505 16.2031V2.5432H154.782V8.15396C155.307 3.5395 158.112 2.01883 160 2.20236V6.03026C159.79 5.97783 159.476 5.95161 159.24 5.95161C157.378 5.95161 154.782 6.89547 154.782 12.6898V16.2031H151.505Z" fill="white"/>
<path d="M143.148 16.5701C138.665 16.5701 135.702 13.5025 135.702 9.3338C135.702 5.11262 138.586 2.12371 142.886 2.12371C146.504 2.12371 148.89 4.3785 148.89 7.13144C148.89 9.41246 147.448 10.5923 145.089 10.5923H142.205C141.025 10.5923 140.212 10.9856 140.212 11.877C140.212 12.9257 141.628 13.6336 143.437 13.6336C145.744 13.6336 147.238 12.5062 147.789 11.7721V15.3116C146.609 15.9671 145.01 16.5701 143.148 16.5701ZM139.085 9.17649C139.085 10.5136 139.504 11.3526 139.635 11.5362C139.294 9.49111 140.631 8.36372 142.598 8.36372H144.014C145.036 8.36372 145.534 7.81313 145.534 7.05279C145.534 6.00405 144.617 5.03396 142.965 5.03396C141.077 5.03396 139.085 6.37111 139.085 9.17649Z" fill="white"/>
<path d="M127.811 16.6225C125.137 16.6225 123.511 15.836 122.83 15.4689V12.113C124.036 13.0568 125.74 13.7123 127.601 13.7123C129.201 13.7123 130.354 13.2141 130.354 12.2703C130.354 9.88439 122.698 11.1953 122.698 6.42354C122.698 3.56572 125.582 2.17614 128.414 2.17614C130.276 2.17614 131.613 2.5432 132.661 3.06757V6.26623C131.796 5.58455 130.433 5.0864 128.807 5.0864C127.077 5.0864 125.792 5.58455 125.792 6.55463C125.792 8.9143 133.579 7.4985 133.579 12.3489C133.579 15.1019 131.088 16.6225 127.811 16.6225Z" fill="white"/>
<path d="M112.728 16.2031V2.5432H116.006V8.15396C116.53 3.5395 119.335 2.01883 121.223 2.20236V6.03026C121.013 5.97783 120.699 5.95161 120.463 5.95161C118.601 5.95161 116.006 6.89547 116.006 12.6898V16.2031H112.728Z" fill="white"/>
<path d="M104.371 16.5701C99.8881 16.5701 96.9254 13.5025 96.9254 9.3338C96.9254 5.11262 99.8094 2.12371 104.109 2.12371C107.727 2.12371 110.113 4.3785 110.113 7.13144C110.113 9.41246 108.671 10.5923 106.312 10.5923H103.428C102.248 10.5923 101.435 10.9856 101.435 11.877C101.435 12.9257 102.851 13.6336 104.66 13.6336C106.967 13.6336 108.462 12.5062 109.012 11.7721V15.3116C107.832 15.9671 106.233 16.5701 104.371 16.5701ZM100.308 9.17649C100.308 10.5136 100.727 11.3526 100.858 11.5362C100.517 9.49111 101.854 8.36372 103.821 8.36372H105.237C106.259 8.36372 106.757 7.81313 106.757 7.05279C106.757 6.00405 105.84 5.03396 104.188 5.03396C102.3 5.03396 100.308 6.37111 100.308 9.17649Z" fill="white"/>
<path d="M87.1515 16.2031C87.0204 15.3903 86.6271 14.158 86.1289 12.8209L82.1962 2.5432H85.8668L88.2002 9.20271C88.8032 11.0642 89.1965 12.716 89.2227 14.1842C89.249 12.716 89.6684 11.0642 90.2453 9.20271L92.5787 2.5432H96.2493L92.3165 12.8209C91.8184 14.158 91.4251 15.3903 91.294 16.2031H87.1515Z" fill="white"/>
<path d="M74.2289 16.6226C69.9553 16.6226 67.1499 13.5812 67.1499 9.36002C67.1499 5.13884 69.9553 2.12371 74.2289 2.12371C78.4763 2.12371 81.3079 5.13884 81.3079 9.36002C81.3079 13.5812 78.4763 16.6226 74.2289 16.6226ZM70.5845 9.36002C70.5845 11.7983 71.8955 13.6336 74.2289 13.6336C76.5362 13.6336 77.8471 11.7983 77.8471 9.36002C77.8471 6.97413 76.5362 5.11262 74.2289 5.11262C71.8955 5.11262 70.5845 6.97413 70.5845 9.36002Z" fill="white"/>
<path d="M57.0436 16.2031V2.5432H60.3209V8.15396C60.8453 3.5395 63.6507 2.01883 65.5384 2.20236V6.03026C65.3287 5.97783 65.014 5.95161 64.7781 5.95161C62.9165 5.95161 60.3209 6.89547 60.3209 12.6898V16.2031H57.0436Z" fill="white"/>
<path d="M52.4522 16.6225C49.673 16.6225 47.7853 15.3378 47.7853 11.4575V5.47967H45.95V2.5432H47.7853V0H51.0626V2.5432H54.3661V5.47967H51.0626V11.1953C51.0626 12.8471 51.6918 13.7123 53.0027 13.7123C53.4222 13.7123 53.8942 13.6599 54.3661 13.3977V16.3604C53.8155 16.4915 53.2649 16.6225 52.4522 16.6225Z" fill="white"/>
<path d="M31.4672 16.2031V2.5432H34.7445V6.00405C35.0591 4.40472 36.4749 2.12371 39.4114 2.12371C41.9546 2.12371 43.921 3.90656 43.921 7.78691V16.2031H40.6437V8.57346C40.6437 6.52842 39.8047 5.0864 38.0218 5.0864C35.7932 5.0864 34.7445 6.97413 34.7445 9.12405V16.2031H31.4672Z" fill="white"/>
<path d="M22.1723 16.6226C17.8987 16.6226 15.0933 13.5812 15.0933 9.36002C15.0933 5.13884 17.8987 2.12371 22.1723 2.12371C26.4197 2.12371 29.2513 5.13884 29.2513 9.36002C29.2513 13.5812 26.4197 16.6226 22.1723 16.6226ZM18.528 9.36002C18.528 11.7983 19.8389 13.6336 22.1723 13.6336C24.4796 13.6336 25.7905 11.7983 25.7905 9.36002C25.7905 6.97413 24.4796 5.11262 22.1723 5.11262C19.8389 5.11262 18.528 6.97413 18.528 9.36002Z" fill="white"/>
<path d="M8.05094 16.6225C3.54135 16.6225 0.5 13.6074 0.5 9.41245C0.5 5.19127 3.54135 2.20236 8.05094 2.20236C9.91245 2.20236 11.538 2.80538 12.7178 3.46085V7.00035C12.141 6.26623 10.6204 5.11261 8.418 5.11261C5.76992 5.11261 3.93463 6.73816 3.93463 9.41245C3.93463 12.0867 5.76992 13.7123 8.418 13.7123C10.6204 13.7123 12.141 12.5325 12.7178 11.8246V15.3641C11.538 16.0195 9.91245 16.6225 8.05094 16.6225Z" fill="white"/>
</svg>
