<svg width="160" height="18" viewBox="0 0 160 18" fill="none" xmlns="http://www.w3.org/2000/svg">
<path d="M151.505 16.8431V3.1832H154.782V8.79396C155.307 4.1795 158.112 2.65883 160 2.84236V6.67026C159.79 6.61783 159.476 6.59161 159.24 6.59161C157.378 6.59161 154.782 7.53547 154.782 13.3298V16.8431H151.505Z" fill="black"/>
<path d="M143.148 17.2101C138.665 17.2101 135.702 14.1425 135.702 9.9738C135.702 5.75262 138.586 2.7637 142.886 2.7637C146.504 2.7637 148.89 5.0185 148.89 7.77144C148.89 10.0525 147.448 11.2323 145.089 11.2323H142.205C141.025 11.2323 140.212 11.6256 140.212 12.517C140.212 13.5657 141.628 14.2736 143.437 14.2736C145.744 14.2736 147.238 13.1462 147.789 12.4121V15.9516C146.609 16.6071 145.01 17.2101 143.148 17.2101ZM139.085 9.81649C139.085 11.1536 139.504 11.9926 139.635 12.1762C139.294 10.1311 140.631 9.00372 142.598 9.00372H144.014C145.036 9.00372 145.534 8.45312 145.534 7.69279C145.534 6.64405 144.617 5.67396 142.965 5.67396C141.077 5.67396 139.085 7.01111 139.085 9.81649Z" fill="black"/>
<path d="M127.811 17.2625C125.137 17.2625 123.511 16.476 122.83 16.1089V12.753C124.036 13.6968 125.74 14.3523 127.601 14.3523C129.201 14.3523 130.354 13.8541 130.354 12.9103C130.354 10.5244 122.698 11.8353 122.698 7.06354C122.698 4.20572 125.582 2.81614 128.414 2.81614C130.276 2.81614 131.613 3.1832 132.661 3.70757V6.90623C131.796 6.22455 130.433 5.7264 128.807 5.7264C127.077 5.7264 125.792 6.22455 125.792 7.19463C125.792 9.5543 133.579 8.1385 133.579 12.9889C133.579 15.7419 131.088 17.2625 127.811 17.2625Z" fill="black"/>
<path d="M112.728 16.8431V3.1832H116.006V8.79396C116.53 4.1795 119.335 2.65883 121.223 2.84236V6.67026C121.013 6.61783 120.699 6.59161 120.463 6.59161C118.601 6.59161 116.006 7.53547 116.006 13.3298V16.8431H112.728Z" fill="black"/>
<path d="M104.371 17.2101C99.8881 17.2101 96.9254 14.1425 96.9254 9.9738C96.9254 5.75262 99.8094 2.7637 104.109 2.7637C107.727 2.7637 110.113 5.0185 110.113 7.77144C110.113 10.0525 108.671 11.2323 106.312 11.2323H103.428C102.248 11.2323 101.435 11.6256 101.435 12.517C101.435 13.5657 102.851 14.2736 104.66 14.2736C106.967 14.2736 108.462 13.1462 109.012 12.4121V15.9516C107.832 16.6071 106.233 17.2101 104.371 17.2101ZM100.308 9.81649C100.308 11.1536 100.727 11.9926 100.858 12.1762C100.517 10.1311 101.854 9.00372 103.821 9.00372H105.237C106.259 9.00372 106.757 8.45312 106.757 7.69279C106.757 6.64405 105.84 5.67396 104.188 5.67396C102.3 5.67396 100.308 7.01111 100.308 9.81649Z" fill="black"/>
<path d="M87.1515 16.8431C87.0204 16.0303 86.6271 14.798 86.1289 13.4609L82.1962 3.1832H85.8668L88.2002 9.84271C88.8032 11.7042 89.1965 13.356 89.2227 14.8242C89.249 13.356 89.6684 11.7042 90.2453 9.84271L92.5787 3.1832H96.2493L92.3165 13.4609C91.8184 14.798 91.4251 16.0303 91.294 16.8431H87.1515Z" fill="black"/>
<path d="M74.2289 17.2626C69.9553 17.2626 67.1499 14.2212 67.1499 10C67.1499 5.77884 69.9553 2.7637 74.2289 2.7637C78.4763 2.7637 81.3079 5.77884 81.3079 10C81.3079 14.2212 78.4763 17.2626 74.2289 17.2626ZM70.5845 10C70.5845 12.4383 71.8955 14.2736 74.2289 14.2736C76.5362 14.2736 77.8471 12.4383 77.8471 10C77.8471 7.61413 76.5362 5.75262 74.2289 5.75262C71.8955 5.75262 70.5845 7.61413 70.5845 10Z" fill="black"/>
<path d="M57.0436 16.8431V3.1832H60.3209V8.79396C60.8453 4.1795 63.6507 2.65883 65.5384 2.84236V6.67026C65.3287 6.61783 65.014 6.59161 64.7781 6.59161C62.9165 6.59161 60.3209 7.53547 60.3209 13.3298V16.8431H57.0436Z" fill="black"/>
<path d="M52.4522 17.2625C49.673 17.2625 47.7853 15.9778 47.7853 12.0975V6.11967H45.95V3.1832H47.7853V0.639999H51.0626V3.1832H54.3661V6.11967H51.0626V11.8353C51.0626 13.4871 51.6918 14.3523 53.0027 14.3523C53.4222 14.3523 53.8942 14.2999 54.3661 14.0377V17.0004C53.8155 17.1315 53.2649 17.2625 52.4522 17.2625Z" fill="black"/>
<path d="M31.4672 16.8431V3.1832H34.7445V6.64405C35.0591 5.04472 36.4749 2.7637 39.4114 2.7637C41.9546 2.7637 43.921 4.54656 43.921 8.42691V16.8431H40.6437V9.21346C40.6437 7.16842 39.8047 5.7264 38.0218 5.7264C35.7932 5.7264 34.7445 7.61413 34.7445 9.76405V16.8431H31.4672Z" fill="black"/>
<path d="M22.1723 17.2626C17.8987 17.2626 15.0933 14.2212 15.0933 10C15.0933 5.77884 17.8987 2.7637 22.1723 2.7637C26.4197 2.7637 29.2513 5.77884 29.2513 10C29.2513 14.2212 26.4197 17.2626 22.1723 17.2626ZM18.528 10C18.528 12.4383 19.8389 14.2736 22.1723 14.2736C24.4796 14.2736 25.7905 12.4383 25.7905 10C25.7905 7.61413 24.4796 5.75262 22.1723 5.75262C19.8389 5.75262 18.528 7.61413 18.528 10Z" fill="black"/>
<path d="M8.05094 17.2625C3.54135 17.2625 0.5 14.2474 0.5 10.0525C0.5 5.83127 3.54135 2.84236 8.05094 2.84236C9.91245 2.84236 11.538 3.44538 12.7178 4.10085V7.64035C12.141 6.90623 10.6204 5.75261 8.418 5.75261C5.76992 5.75261 3.93463 7.37816 3.93463 10.0525C3.93463 12.7267 5.76992 14.3523 8.418 14.3523C10.6204 14.3523 12.141 13.1725 12.7178 12.4646V16.0041C11.538 16.6595 9.91245 17.2625 8.05094 17.2625Z" fill="black"/>
</svg>
